<?xml version="1.0" standalone="no"?>
<!DOCTYPE svg PUBLIC "-//W3C//DTD SVG 20010904//EN"
 "http://www.w3.org/TR/2001/REC-SVG-20010904/DTD/svg10.dtd">
<svg version="1.0" xmlns="http://www.w3.org/2000/svg"
 width="700.000000pt" height="700.000000pt" viewBox="0 0 700.000000 700.000000"
 preserveAspectRatio="xMidYMid meet">
<metadata>
Created by potrace 1.14, written by Peter Selinger 2001-2017
</metadata>
<g transform="translate(0.000000,700.000000) scale(0.100000,-0.100000)"
fill="#000000" stroke="none">
<path d="M3017 6724 c-1 -1 -53 -4 -115 -6 -101 -5 -119 -9 -179 -38 -155 -77
-246 -229 -238 -400 5 -120 38 -194 122 -276 83 -80 199 -123 336 -126 27 0
47 -5 48 -12 1 -11 -1 -67 -5 -134 -2 -18 -7 -36 -12 -41 -5 -4 -49 -18 -99
-31 -165 -42 -315 -90 -423 -136 -613 -262 -1089 -705 -1392 -1296 -121 -237
-228 -565 -256 -787 -3 -26 -7 -53 -9 -61 -27 -104 -27 -608 -1 -758 2 -9 7
-39 11 -67 7 -52 38 -195 55 -255 169 -607 487 -1080 997 -1482 176 -139 564
-341 806 -419 140 -45 371 -94 542 -114 86 -11 446 -13 540 -4 297 30 604 111
860 229 117 53 225 109 281 146 30 18 57 34 60 34 3 0 49 30 101 67 403 280
735 675 922 1093 18 41 41 93 51 115 46 101 123 354 151 495 15 79 17 90 24
145 4 28 8 61 10 75 24 180 24 469 0 663 -54 435 -226 874 -492 1256 -37 54
-43 68 -35 86 9 19 69 85 207 231 53 55 107 141 120 192 67 258 -222 493 -463
376 -49 -24 -138 -101 -294 -256 l-68 -68 -107 74 c-320 219 -701 386 -1008
442 -15 3 -33 6 -39 7 -19 4 -21 13 -21 103 1 99 -9 89 105 99 84 8 106 13
160 41 66 33 128 90 172 158 46 71 61 119 64 208 4 117 -39 217 -139 317 -71
71 -129 97 -239 107 -60 6 -1105 13 -1111 8z m713 -1717 c100 -14 129 -19 170
-29 25 -5 56 -12 70 -14 14 -3 63 -16 110 -30 585 -177 1058 -608 1288 -1175
32 -79 72 -197 88 -259 38 -152 48 -257 48 -500 0 -159 -10 -345 -18 -359 -2
-3 -7 -24 -10 -46 -10 -64 -63 -237 -102 -335 -152 -385 -453 -743 -814 -969
-193 -121 -480 -232 -685 -266 -111 -19 -240 -29 -375 -29 -175 0 -296 13
-455 48 -272 59 -586 215 -818 404 -395 324 -662 800 -716 1278 -11 98 -11
500 -1 574 22 148 19 134 67 290 20 63 40 121 46 128 5 6 6 12 1 12 -4 0 -3 5
4 12 7 7 12 18 12 26 0 7 27 66 59 131 180 359 434 631 786 843 48 29 234 118
311 148 126 50 338 102 469 115 39 4 71 9 73 10 5 5 353 -2 392 -8z"/>
<path d="M4079 3824 l-486 -486 -79 -4 c-92 -4 -129 -13 -188 -48 -197 -115
-215 -404 -35 -546 132 -104 345 -89 454 32 62 68 92 148 94 250 1 41 7 54 50
105 26 32 247 259 490 503 242 245 442 449 442 455 4 31 4 202 1 213 -3 9 -38
12 -131 12 l-126 0 -486 -486z"/>
</g>
</svg>
